<svg width="877" height="455" viewBox="0 0 877 455" fill="none" xmlns="http://www.w3.org/2000/svg">
<g clip-path="url(#clip0)">
<path d="M508.001 252.226C488.188 260.084 463.303 261.868 440.935 257.034L68.6046 176.564C60.6796 174.821 51.9346 173.905 43.0592 173.888H-304.051C-315.42 173.845 -326.516 172.364 -335.994 169.625L-563 105.876V455H877V105.876L508.001 252.226Z" fill="url(#paint0_linear)"/>
<path opacity="0.237" d="M614.426 65.5216C592.687 60.7977 568.797 62.7783 549.59 70.8974L405.533 131.798C385.973 140.066 361.582 141.96 339.56 136.919L72.6685 75.834C64.8697 74.0224 56.3348 73.0744 47.6843 73.059H-293.993C-312.454 73.059 -330.266 77.4695 -344.02 85.4461L-563 212.442V455H877V122.565L614.426 65.5216Z" fill="url(#paint1_linear)"/>
<path d="M425.717 126.329C423.851 126.329 421.986 125.785 420.393 124.65C410.519 117.75 400.782 110.35 391.454 102.724C384.765 97.2761 378.167 91.6016 371.751 85.7909C367.974 82.3408 367.656 76.4847 371.114 72.7168C374.572 68.949 380.442 68.6312 384.219 72.0813C390.362 77.665 396.732 83.1125 403.193 88.3784C412.203 95.6872 421.576 102.814 431.041 109.488C435.227 112.438 436.228 118.204 433.316 122.38C431.541 124.968 428.674 126.329 425.717 126.329Z" fill="#14254C"/>
<path d="M451.471 127.328L426.49 103.541L411.884 121.29L443.463 136.044L451.471 127.328Z" fill="#F27043"/>
<path d="M381.216 65.2719L394.866 78.8453L383.172 83.5211L368.748 68.7674V50.1096H381.216V65.2719Z" fill="black"/>
<path d="M427.582 142.808L433.361 139.54C435.5 138.359 438.139 138.45 440.141 139.812L446.739 144.306C447.603 144.896 447.512 146.167 446.602 146.667L445.783 147.075C445.465 147.212 445.146 147.257 444.828 147.166L427.582 142.808Z" fill="#F27043"/>
<path d="M304.18 265.74C303.316 265.74 302.451 265.559 301.632 265.15C298.902 263.743 297.81 260.384 299.22 257.66L329.798 198.01C331.209 195.286 334.576 194.196 337.306 195.604C340.036 197.011 341.128 200.37 339.717 203.094L309.14 262.699C308.184 264.651 306.228 265.74 304.18 265.74Z" fill="#FAB16A"/>
<path d="M298.583 259.839C298.401 263.107 301.041 265.877 304.317 265.831L306.455 265.786L325.839 265.559C327.523 265.559 328.979 264.333 329.252 262.608C329.57 260.701 328.251 258.931 326.34 258.613L316.011 256.797L305.363 254.618C301.996 253.937 298.811 256.434 298.583 259.839Z" fill="#FAB16A"/>
<path d="M449 264.55C447.023 264.55 445.131 263.289 444.29 261.218L419.603 200.254C418.467 197.463 419.687 194.221 422.294 193.005C424.902 191.789 427.93 193.095 429.065 195.887L453.752 256.851C454.888 259.642 453.668 262.884 451.061 264.1C450.346 264.415 449.673 264.55 449 264.55Z" fill="#FAB16A"/>
<path d="M365.745 143.762L385.766 200.87L386.448 248.354C386.448 249.216 387.176 249.943 388.041 249.943H474.723C476.042 249.943 476.77 248.49 476.042 247.4L433.179 185.798L383.809 138.405L365.745 143.762Z" fill="black"/>
<path d="M346.042 133.956L284.114 247.9C283.522 248.989 284.296 250.26 285.524 250.26L379.213 249.943C380.078 249.943 380.806 249.216 380.806 248.354L381.124 203.003L370.249 140.992L346.042 133.956Z" fill="black"/>
<path d="M346.133 143.307L381.989 147.575L389.087 93.3719C391.499 78.1643 379.714 64.4093 364.289 64.4093C348.863 64.4093 337.078 78.1643 339.49 93.3719L346.133 143.307Z" fill="#F27043"/>
<path d="M385.493 130.461L343.403 126.329L345.223 141.174C346.406 150.707 354.369 157.925 363.97 158.197C373.799 158.47 382.308 151.388 383.764 141.673L385.493 130.461Z" fill="#14254C"/>
<path d="M323.655 156.064L337.943 168.729C338.534 169.274 339.49 169.138 339.945 168.457L359.602 138.723C360.102 137.996 359.738 136.952 358.874 136.725L348.59 133.593C348.135 133.457 347.68 133.547 347.316 133.865L323.655 154.066C323.063 154.566 323.063 155.519 323.655 156.064Z" fill="#14254C"/>
<path d="M396.914 163.736L407.197 156.609C407.971 156.064 407.971 154.974 407.243 154.43L382.262 136.135C381.852 135.817 381.306 135.772 380.851 136.044L372.388 140.584C371.569 141.038 371.432 142.127 372.115 142.763L395.321 163.6C395.731 164.054 396.413 164.099 396.914 163.736Z" fill="#14254C"/>
<path d="M391.408 166.142L374.936 139.767L354.233 138.586C353.596 138.541 353.004 138.995 352.868 139.63L345.314 172.361L391.408 166.142Z" fill="#14254C"/>
<path d="M454.474 120.428L468.443 98.2293L510.033 42.3923L540.201 2.08068C540.747 1.30895 541.839 1.17276 542.567 1.71751C543.34 2.26226 543.522 3.30637 543.022 4.0781L514.992 45.9332L475.815 103.495L459.434 123.969L454.474 120.428Z" fill="#FAB16A"/>
<path d="M516.631 42.0745L513.081 39.5324C512.535 39.1238 511.762 39.26 511.352 39.8047L509.669 42.1199C509.259 42.6647 509.396 43.4364 509.942 43.845L513.491 46.3871C514.037 46.7957 514.81 46.6595 515.22 46.1148L516.904 43.7996C517.313 43.2548 517.177 42.4831 516.631 42.0745Z" fill="black"/>
<path d="M543.613 2.26227L541.611 0.854997C541.156 0.537226 540.474 0.628018 540.155 1.08198L538.472 3.44257C538.153 3.89653 538.244 4.57746 538.699 4.89524L540.701 6.30251C541.156 6.62028 541.839 6.52949 542.157 6.07553L543.841 3.71494C544.205 3.26098 544.068 2.62544 543.613 2.26227Z" fill="black"/>
<path d="M432.633 165.007L424.443 159.196L454.52 120.292L459.525 123.833L432.633 165.007Z" fill="black"/>
<path d="M468.716 126.284L449.469 112.665C449.014 112.347 448.377 112.438 448.058 112.892L446.693 114.799C446.375 115.253 446.466 115.888 446.921 116.206L466.168 129.825C466.623 130.143 467.26 130.052 467.579 129.598L468.944 127.691C469.308 127.192 469.171 126.602 468.716 126.284Z" fill="black"/>
<path d="M441.688 158.969L446.739 151.887C448.24 149.799 447.376 146.894 444.964 145.94L431.45 140.584L425.944 150.798L435.864 159.65C437.593 161.194 440.323 160.921 441.688 158.969Z" fill="#F27043"/>
<path d="M403.603 140.084C402.556 140.084 401.464 139.903 400.418 139.494C390.134 135.726 380.806 130.188 372.707 123.015C357.372 109.442 350.274 93.3719 346.952 82.2953C345.496 77.3925 348.317 72.2174 353.232 70.7647C358.146 69.3121 363.333 72.1266 364.789 77.0294C367.383 85.7908 373.025 98.5017 385.083 109.17C391.454 114.799 398.779 119.157 406.879 122.108C411.702 123.878 414.159 129.189 412.385 134.001C410.929 137.724 407.379 140.084 403.603 140.084Z" fill="#0C1B38"/>
<path d="M435.227 140.538L408.517 119.702L393.183 140.538L430.904 152.296L435.227 140.538Z" fill="#F27043"/>
<path d="M373.025 65.2265L354.324 81.569L331.709 72.626L344.404 62.5027C346.224 61.05 347.271 58.8256 347.271 56.5104V45.0253H372.98V65.2265H373.025Z" fill="black"/>
<path fill-rule="evenodd" clip-rule="evenodd" d="M353.505 24.6879C346.679 21.147 343.085 17.0614 341.083 13.8383C338.762 10.1158 337.988 6.7111 334.485 5.21303C332.301 4.30511 330.89 4.89526 326.476 4.84986C322.381 4.80447 319.059 4.21432 316.784 3.71497C316.557 5.30382 316.375 6.93808 316.147 8.52694C318.24 9.20788 321.289 9.88882 324.929 9.66184C328.797 9.43486 330.298 8.34535 332.574 9.16248C335.668 10.252 336.35 13.4751 338.17 16.2896C340.218 19.422 344.359 22.9629 353.505 24.6879Z" fill="#F27043"/>
<path fill-rule="evenodd" clip-rule="evenodd" d="M353.914 24.4609C346.224 24.1885 341.219 21.9641 338.034 19.9213C334.576 17.6969 332.619 15.4725 328.342 14.9278C325.248 14.5192 323.837 15.4725 320.06 15.1094C316.557 14.7916 313.736 13.6567 311.915 12.7034C311.597 14.4284 311.233 16.1535 310.914 17.9239C312.643 18.6502 315.328 19.5128 318.695 19.6943C323.063 19.9213 324.793 18.741 328.342 19.2858C332.118 19.8759 333.666 21.6464 336.441 23.326C339.672 25.3234 344.905 26.7761 353.914 24.4609Z" fill="#F27043"/>
<path fill-rule="evenodd" clip-rule="evenodd" d="M354.915 16.7889H361.968C372.707 16.7889 381.534 25.4596 381.534 36.3092V51.6076C381.534 58.4624 375.983 64.0007 369.112 64.0007H359.511C352.64 64.0007 347.089 58.4624 347.089 51.6076V24.5516C347.134 20.239 350.683 16.7889 354.915 16.7889Z" fill="#14254C"/>
<path fill-rule="evenodd" clip-rule="evenodd" d="M348.909 43.0733C348.909 51.6077 355.825 58.5079 364.38 58.5079C372.934 58.5079 379.85 51.4716 379.85 43.0733C379.85 34.675 372.934 27.6387 364.38 27.6387C355.825 27.6387 348.909 34.5389 348.909 43.0733Z" fill="#31475C"/>
<path fill-rule="evenodd" clip-rule="evenodd" d="M350.956 35.5376C350.956 35.4922 350.956 35.4468 350.956 35.4014C353.641 30.771 358.601 27.6387 364.38 27.6387C370.158 27.6387 375.118 30.8164 377.803 35.4468C377.803 35.4922 377.803 35.4922 377.803 35.5376V50.6998C375.118 55.3302 370.158 58.5079 364.38 58.5079C358.601 58.5079 353.596 55.3756 350.956 50.7452V35.5376Z" fill="#FAB16A"/>
<path fill-rule="evenodd" clip-rule="evenodd" d="M370.75 46.7504H363.743V34.6296L370.75 46.7504Z" fill="#DC7F1B"/>
<path d="M379.851 33.4948H347.771V31.9513H379.851V33.4948Z" fill="#14254C"/>
<path d="M379.851 40.5311H347.771V38.9877H379.851V40.5311Z" fill="#14254C"/>
<path d="M379.85 54.5585H349.682V52.8789H379.85V54.5585Z" fill="#14254C"/>
<path d="M379.851 47.5221H347.771V45.8878H379.851V47.5221Z" fill="#14254C"/>
<path d="M356.28 37.8528H357.873C358.51 37.8528 359.01 37.3534 359.01 36.7179V36.6271C359.01 35.9915 358.51 35.4922 357.873 35.4922H356.28C355.643 35.4922 355.143 35.9915 355.143 36.6271V36.7179C355.143 37.3534 355.643 37.8528 356.28 37.8528Z" fill="white"/>
<path d="M372.16 37.8528H373.753C374.39 37.8528 374.891 37.3534 374.891 36.7179V36.6271C374.891 35.9915 374.39 35.4922 373.753 35.4922H372.16C371.523 35.4922 371.023 35.9915 371.023 36.6271V36.7179C371.068 37.3534 371.569 37.8528 372.16 37.8528Z" fill="white"/>
<path d="M359.01 37.8528C359.664 37.8528 360.193 37.3243 360.193 36.6725C360.193 36.0206 359.664 35.4922 359.01 35.4922C358.357 35.4922 357.827 36.0206 357.827 36.6725C357.827 37.3243 358.357 37.8528 359.01 37.8528Z" fill="black"/>
<path d="M374.663 37.8528C375.317 37.8528 375.846 37.3243 375.846 36.6725C375.846 36.0206 375.317 35.4922 374.663 35.4922C374.01 35.4922 373.48 36.0206 373.48 36.6725C373.48 37.3243 374.01 37.8528 374.663 37.8528Z" fill="black"/>
<path d="M453.746 141.855L458.706 135C460.253 132.866 459.297 129.825 456.749 128.962L454.019 128.054C452.063 127.374 449.878 128.145 448.741 129.87L445.328 135.136C444.1 137.043 444.464 139.54 446.147 141.038L447.922 142.581C449.696 144.034 452.381 143.716 453.746 141.855Z" fill="#F27043"/>
<path d="M439.868 125.467L445.692 122.244C447.831 121.064 450.47 121.2 452.472 122.607L459.025 127.147C459.889 127.737 459.798 129.008 458.843 129.507L458.024 129.916C457.705 130.052 457.386 130.097 457.068 130.007L439.868 125.467Z" fill="#F27043"/>
<path d="M444.573 260.364C444.739 263.321 447.639 265.502 450.87 265.08L452.977 264.79L472.099 262.331C473.762 262.135 475.07 260.864 475.157 259.283C475.27 257.533 473.779 256.097 471.858 256.034L461.464 255.604L450.717 254.886C447.364 254.661 444.438 257.28 444.573 260.364Z" fill="#FAB16A"/>
</g>
<defs>
<linearGradient id="paint0_linear" x1="-215.96" y1="3.9321" x2="-193.808" y2="481.35" gradientUnits="userSpaceOnUse">
<stop stop-color="#3A55DA"/>
<stop offset="1" stop-color="#282F89"/>
</linearGradient>
<linearGradient id="paint1_linear" x1="193" y1="110.04" x2="189.688" y2="467.143" gradientUnits="userSpaceOnUse">
<stop stop-color="#5777EA"/>
<stop offset="1" stop-color="#282F89"/>
</linearGradient>
<clipPath id="clip0">
<rect width="877" height="455" fill="white"/>
</clipPath>
</defs>
</svg>
