<svg width="16" height="13" viewBox="0 0 16 13" fill="none" xmlns="http://www.w3.org/2000/svg">
<path fill-rule="evenodd" clip-rule="evenodd" d="M12.4344 0.106262C12.6812 0.0375123 12.9156 0.0031373 13.1344 0.0031373C13.4094 1.23025e-05 13.6469 0.0468873 13.85 0.140637H13.8719C14.1969 0.259387 14.4688 0.462512 14.6906 0.750012C14.9094 1.05001 15.0188 1.37501 15.0125 1.71876C15.0125 1.80001 15.0062 1.85939 14.9937 1.90001C14.9656 2.13439 14.9 2.34064 14.7937 2.52501C14.6875 2.70939 14.55 2.87189 14.3844 3.00939C14.0187 3.30939 13.6031 3.45939 13.1375 3.45939H12.9094C12.4406 3.42189 12.05 3.23751 11.7281 2.91251C11.575 2.75939 11.45 2.58439 11.3594 2.39689C11.2656 2.20626 11.2188 1.99689 11.2188 1.76251V1.70001C10.9969 1.61876 10.7781 1.54689 10.5562 1.48439C10.3375 1.42501 10.1094 1.39064 9.87813 1.39064H9.69687C9.31562 1.43126 9.05 1.60314 8.89688 1.90314C8.77813 2.10939 8.69688 2.33126 8.6625 2.57189C8.62813 2.81251 8.60625 3.64064 8.60625 3.88126C9.2625 3.92189 9.90312 4.01876 10.5312 4.17189C11.1625 4.32501 11.7656 4.55314 12.3344 4.85314L12.3562 4.87189C12.3812 4.87189 12.4125 4.88439 12.4375 4.91251C12.5437 4.83126 12.6344 4.77814 12.7063 4.74376C13.0437 4.52501 13.4344 4.41876 13.875 4.42501C14.0406 4.42501 14.2156 4.44376 14.4031 4.48439H14.4219C14.8281 4.59064 15.1844 4.80001 15.4906 5.11251C15.7875 5.41876 15.9625 5.78439 16 6.20314V6.30314C16 6.66876 15.8906 7.00314 15.6687 7.30314C15.4625 7.59064 15.2031 7.80939 14.8906 7.96251C14.8996 8.00948 14.9053 8.05965 14.9113 8.11187V8.11188L14.9113 8.11189C14.9137 8.13263 14.9161 8.1537 14.9187 8.17501C14.9281 8.25001 14.9312 8.32814 14.9312 8.40939C14.9312 9.20314 14.6656 9.91876 14.1313 10.5594C13.6656 11.1313 13.1 11.5938 12.4344 11.9438C11.7688 12.2938 11.0719 12.5563 10.3469 12.7281C9.95312 12.8094 9.5625 12.875 9.17188 12.925C8.78438 12.975 8.39062 13 8 13C7.4 13 6.8125 12.9469 6.23125 12.8438C5.65312 12.7438 5.09062 12.5875 4.54375 12.3813C3.97187 12.1625 3.42813 11.875 2.91563 11.5313C2.40313 11.1844 1.97813 10.75 1.6375 10.2313C1.45938 9.95939 1.32187 9.66876 1.22812 9.35314C1.13437 9.03751 1.0875 8.72501 1.0875 8.41251C1.0875 8.34689 1.09062 8.27501 1.09687 8.19689L1.1026 8.1491C1.10936 8.09135 1.11585 8.03594 1.12812 7.98439C0.8 7.80626 0.546875 7.58439 0.36875 7.32501C0.1375 7.00939 0.0125 6.68126 0 6.34376C0 6.09689 0.053125 5.86251 0.165625 5.63439C0.278125 5.40939 0.41875 5.20939 0.6 5.02814C0.79375 4.85001 1.00312 4.70939 1.23438 4.60939C1.46563 4.50939 1.71563 4.45939 1.9875 4.45939H2.16875C2.44375 4.45939 2.70312 4.50001 2.94688 4.58126C3.18125 4.66251 3.39375 4.77189 3.5875 4.91251C3.5973 4.90816 3.60748 4.90342 3.61791 4.89857L3.61792 4.89856C3.63741 4.8895 3.65777 4.88003 3.67812 4.87189L3.68987 4.86717C3.71859 4.85561 3.75184 4.84223 3.7875 4.83126C4.3625 4.51876 4.975 4.29064 5.63125 4.14689C6.2875 4.00314 6.94063 3.90939 7.59375 3.86251C7.59375 3.55939 7.62188 3.08439 7.675 2.77814L7.67832 2.75779V2.75779L7.67832 2.75777L7.67832 2.75777C7.72988 2.44162 7.84107 1.75977 8.00313 1.49376C8.13438 1.25939 8.30938 1.05939 8.52188 0.896887C8.73438 0.734387 8.975 0.618762 9.25 0.553137H9.26875C9.475 0.512512 9.67813 0.493762 9.87813 0.493762C10.4125 0.493762 10.9531 0.603137 11.4969 0.825012C11.7156 0.500012 12.0187 0.259387 12.4156 0.106262H12.4344ZM13.725 1.12501C13.5687 0.968762 13.3812 0.887512 13.1594 0.884387C13.1438 0.884387 13.1281 0.884387 13.1156 0.890637C13.0219 0.890637 12.9469 0.896887 12.8844 0.909387C12.6906 0.946887 12.5344 1.04064 12.4156 1.18751C12.2812 1.32814 12.2156 1.50001 12.2156 1.70626V1.74689C12.2156 1.96564 12.3031 2.15001 12.475 2.29689C12.6594 2.45001 12.8562 2.52814 13.075 2.52814H13.1344C13.3562 2.52814 13.5531 2.45001 13.725 2.29689C13.8906 2.14376 13.9875 1.95939 14.0125 1.74689V1.70626C14.0125 1.47189 13.9187 1.27814 13.725 1.12501ZM8.02188 4.80939C8.33438 4.80939 8.65625 4.82501 8.98438 4.85939C9.31563 4.89376 9.6375 4.94376 9.94688 5.00939L10.2562 5.09064L10.575 5.17189C11.1219 5.32501 11.6406 5.54376 12.1344 5.83126C12.6281 6.11876 13.0406 6.48126 13.3844 6.92189C13.5437 7.15001 13.6719 7.38751 13.7688 7.64064C13.8656 7.89376 13.9125 8.15626 13.9125 8.43126V8.66876C13.9125 8.74064 13.9 8.81251 13.8719 8.87814C13.7844 9.26564 13.6063 9.62814 13.3313 9.96876C13.1 10.2813 12.8 10.5688 12.4312 10.8281C11.8844 11.1938 11.2937 11.475 10.6531 11.6688C10.0156 11.8625 9.3625 11.9844 8.69375 12.0375C8.58125 12.0531 8.46562 12.0563 8.35625 12.0563H8.01875C7.35313 12.0563 6.69375 11.9875 6.04688 11.85C5.39687 11.7125 4.7875 11.4938 4.21562 11.1938L4.075 11.1125L3.925 11.0438C3.51875 10.7844 3.1625 10.4969 2.84688 10.1844C2.52813 9.82501 2.30938 9.43439 2.1875 9.01564C2.13438 8.85314 2.10625 8.66564 2.10625 8.44689C2.10625 7.88126 2.28125 7.37814 2.63438 6.93751C2.97813 6.49689 3.39688 6.13126 3.8875 5.83751C4.37813 5.54376 4.89375 5.32189 5.44063 5.16876C6.25938 4.92814 7.11875 4.80626 8.02188 4.80939ZM2.16563 5.36251H2.06563C1.82188 5.39064 1.5875 5.48439 1.36563 5.65001C1.16875 5.83126 1.06563 6.04064 1.04375 6.28126V6.34689C1.04375 6.51251 1.09063 6.64689 1.18438 6.75626C1.25313 6.87501 1.32812 6.96251 1.41563 7.02501C1.56875 6.72501 1.75313 6.44689 1.96875 6.19376C2.1875 5.94064 2.43125 5.70314 2.70312 5.48439L2.64688 5.46762L2.64688 5.46761L2.64685 5.46761C2.57414 5.44599 2.5054 5.42556 2.44063 5.40314C2.35625 5.37501 2.26562 5.36251 2.16563 5.36251ZM13.8531 5.36251C14.0531 5.36251 14.25 5.40939 14.4438 5.50001C14.6344 5.60939 14.7812 5.74376 14.8719 5.91251C14.9375 6.05314 14.9719 6.18126 14.9719 6.30314C14.9719 6.46876 14.9344 6.61876 14.8531 6.75314C14.7781 6.86564 14.6969 6.96251 14.6031 7.04064C14.4563 6.72814 14.2719 6.44376 14.0531 6.19064C13.8344 5.93751 13.5875 5.70314 13.3156 5.48126C13.4812 5.40001 13.6594 5.36251 13.8531 5.36251ZM10.1281 6.76876C10.2469 6.73126 10.3656 6.70939 10.4781 6.70939C10.6844 6.70939 10.8813 6.76564 11.0656 6.86876C11.2594 6.99376 11.3844 7.15314 11.4344 7.34689C11.4781 7.45314 11.4969 7.55314 11.4969 7.64689C11.4969 7.85314 11.4344 8.04376 11.3156 8.20939C11.15 8.38751 10.9812 8.49376 10.8062 8.52814H10.7781C10.6687 8.56876 10.575 8.58751 10.4969 8.58751C10.25 8.58751 10.0312 8.51564 9.8375 8.36876C9.64688 8.24689 9.52812 8.07189 9.4875 7.83751V7.81876C9.475 7.77814 9.46875 7.72189 9.46875 7.64689C9.46875 7.44064 9.53438 7.26564 9.65938 7.11876C9.77812 6.95314 9.93437 6.83751 10.1281 6.76876ZM5.52187 6.70939C5.44063 6.70939 5.375 6.71564 5.325 6.73126C5.14375 6.75939 4.9875 6.82814 4.85 6.94689C4.7125 7.06251 4.61875 7.20626 4.56563 7.37189C4.5375 7.40939 4.525 7.45626 4.525 7.50001V7.63126C4.525 7.85001 4.58437 8.04376 4.70625 8.21251C4.8375 8.37189 5.00625 8.47814 5.21563 8.53126C5.30938 8.56876 5.4125 8.59064 5.525 8.59064C5.78438 8.59064 6.01875 8.50314 6.225 8.33126C6.44688 8.15314 6.55625 7.93126 6.55625 7.67189V7.60939C6.55625 7.36251 6.45312 7.15314 6.24687 6.98126C6.02187 6.80001 5.78125 6.70939 5.52187 6.70939ZM5.30625 9.70001C5.38438 9.67501 5.44688 9.65939 5.48438 9.65939C5.52187 9.65626 5.58125 9.67189 5.6625 9.69689C5.66844 9.69905 5.67447 9.70121 5.68054 9.70338C5.70964 9.7138 5.73977 9.72459 5.76562 9.73751C5.79687 9.75314 5.82499 9.76563 5.85312 9.77813L5.85313 9.77814C5.9625 9.87814 6.0625 9.94064 6.14062 9.96876C6.6875 10.2156 7.28125 10.3375 7.91875 10.3375C8.77188 10.3313 9.5625 10.125 10.2875 9.71876C10.3719 9.67501 10.4594 9.65626 10.5375 9.65626C10.6125 9.65626 10.7031 9.68439 10.8062 9.73751C10.8969 9.77814 10.9656 9.84689 11.0063 9.94689C11.0344 10.0281 11.0469 10.0875 11.0469 10.1281C11.0469 10.1688 11.0375 10.2031 11.025 10.2281C11.0094 10.3031 10.9719 10.375 10.9062 10.4406C10.8594 10.4938 10.8031 10.5313 10.7344 10.5594C10.6687 10.6 10.6062 10.6344 10.5469 10.6594C10.531 10.6669 10.5154 10.6742 10.5 10.6814C10.4577 10.7011 10.4171 10.72 10.3781 10.7406C9.99063 10.9188 9.59062 11.05 9.17813 11.1344C8.76562 11.2188 8.34062 11.2594 7.9 11.2594H7.75C6.8375 11.2594 6 11.0188 5.23438 10.5375C5.15313 10.5 5.09375 10.4469 5.05312 10.3781C5.0125 10.2906 4.99375 10.2094 4.99375 10.1281C4.99375 10.0281 5.01562 9.94376 5.05312 9.87814C5.125 9.78439 5.2 9.72501 5.28125 9.70001H5.30625Z" fill="#424242"/>
</svg>
