<svg width="15" height="12" viewBox="0 0 15 12" fill="none" xmlns="http://www.w3.org/2000/svg">
<path d="M9.69375 0C8.10625 0 6.82188 1.2875 6.82188 2.87188C6.82188 3.09687 6.84687 3.31562 6.89687 3.52813C4.50937 3.40937 2.39375 2.26562 0.978125 0.528125C0.73125 0.953125 0.590625 1.44375 0.590625 1.97188C0.590625 2.96875 1.09687 3.84688 1.86875 4.3625C1.39687 4.34688 0.95625 4.21875 0.56875 4.00313V4.04063C0.56875 5.43125 1.55938 6.59375 2.87188 6.85625C2.63125 6.92188 2.37812 6.95937 2.11562 6.95937C1.93125 6.95937 1.75 6.94063 1.575 6.90938C1.94063 8.05 3 8.88125 4.25938 8.90312C3.26875 9.66875 2.03125 10.1281 0.6875 10.1281C0.45625 10.1281 0.225 10.1156 0 10.0875C1.27188 10.9 2.78125 11.3781 4.40312 11.3781C9.6875 11.3781 12.575 7 12.575 3.20625C12.575 3.08125 12.5719 2.95625 12.5688 2.83437C13.1313 2.43125 13.6156 1.925 14.0031 1.34687C13.4875 1.575 12.9344 1.73125 12.3531 1.8C12.9469 1.44375 13.4031 0.88125 13.6156 0.2125C13.0594 0.540625 12.4469 0.78125 11.7906 0.909375C11.2656 0.346875 10.5188 0 9.69375 0Z" fill="#424242"/>
</svg>
